<svg width="28" height="28" viewBox="0 0 28 28" fill="none" xmlns="http://www.w3.org/2000/svg">
<path d="M15.8769 23.2138C16.4785 23.2138 17.0554 22.9748 17.4808 22.5494C17.9061 22.1241 18.1451 21.5472 18.1451 20.9456C18.1451 20.3441 17.9061 19.7672 17.4808 19.3418C17.0554 18.9164 16.4785 18.6775 15.8769 18.6775C15.2754 18.6775 14.6985 18.9164 14.2731 19.3418C13.8478 19.7672 13.6088 20.3441 13.6088 20.9456C13.6088 21.5472 13.8478 22.1241 14.2731 22.5494C14.6985 22.9748 15.2754 23.2138 15.8769 23.2138ZM7.93843 23.2138C8.53998 23.2138 9.11689 22.9748 9.54225 22.5494C9.96761 22.1241 10.2066 21.5472 10.2066 20.9456C10.2066 20.3441 9.96761 19.7672 9.54225 19.3418C9.11689 18.9164 8.53998 18.6775 7.93843 18.6775C7.33688 18.6775 6.75997 18.9164 6.33461 19.3418C5.90925 19.7672 5.67028 20.3441 5.67028 20.9456C5.67028 21.5472 5.90925 22.1241 6.33461 22.5494C6.75997 22.9748 7.33688 23.2138 7.93843 23.2138ZM22.7245 7.24942C23.0076 7.24029 23.276 7.12141 23.4731 6.91792C23.6701 6.71442 23.7803 6.44227 23.7803 6.15901C23.7803 5.87576 23.6701 5.60361 23.4731 5.40011C23.276 5.19662 23.0076 5.07773 22.7245 5.0686H21.4191C20.3962 5.0686 19.5116 5.77853 19.2894 6.77652L17.8684 13.175C17.6461 14.1729 16.7615 14.8829 15.7386 14.8829H7.21943L5.5841 8.33927H16.182C16.4624 8.32647 16.7272 8.20606 16.9211 8.00307C17.115 7.80009 17.2232 7.53016 17.2232 7.24942C17.2232 6.96869 17.115 6.69876 16.9211 6.49577C16.7272 6.29279 16.4624 6.17238 16.182 6.15958H5.5841C5.25257 6.15948 4.92538 6.23497 4.62741 6.38031C4.32943 6.52565 4.06852 6.73701 3.8645 6.99832C3.66047 7.25964 3.51871 7.56403 3.45 7.88836C3.38128 8.21268 3.38741 8.54841 3.46792 8.87001L5.10325 15.4113C5.22114 15.8833 5.49347 16.3024 5.87692 16.6018C6.26037 16.9012 6.73293 17.0638 7.21943 17.0637H15.7386C16.7311 17.0638 17.694 16.7254 18.4683 16.1044C19.2425 15.4833 19.7818 14.6168 19.997 13.6479L21.4191 7.24942H22.7245Z" fill="white"/>
</svg>
